<svg width="70" height="70" viewBox="0 0 70 70" fill="none" xmlns="http://www.w3.org/2000/svg">
<path fill-rule="evenodd" clip-rule="evenodd" d="M8 0C3.58172 0 0 3.58172 0 8V62C0 66.4183 3.58172 70 8 70H62C66.4183 70 70 66.4183 70 62V8C70 3.58172 66.4183 0 62 0H8ZM24.2726 15.78C23.5442 15.9318 23.0227 16.5744 23.024 17.3184L23.0789 48.2314C23.0813 49.5906 24.6935 50.3037 25.7008 49.3911L35.4168 40.5885C36.2273 39.8542 37.5215 40.1538 37.9269 41.1695L43.9728 56.3177C44.6114 57.9177 46.9884 57.4679 46.9982 55.7451L47.1721 25.2108C47.1789 24.0205 45.9095 23.2566 44.861 23.82L38.2627 29.3656C37.2302 29.9204 35.9761 29.1881 35.9519 28.0163L35.7302 15.289C35.7099 14.3074 34.803 13.5855 33.8419 13.7858L24.2726 15.78Z" fill="url(#paint0_linear_14_84)"/>
<defs>
<linearGradient id="paint0_linear_14_84" x1="0" y1="35" x2="66.1417" y2="35" gradientUnits="userSpaceOnUse">
<stop stop-color="#5E38C7"/>
<stop offset="1" stop-color="#384EC7"/>
</linearGradient>
</defs>
</svg>
